PathFileType	4	(X/Y/Z)	/Users/itak/Documents/Research/Walk-IL/dataset/trc/00089_00006.trc
DataRate	CameraRate	NumFrames	NumMarkers	Units	OrigDataRate	OrigDataStartFrame	OrigNumFrames
100.000000	100.000000	4	53	mm	100.000000	126	504
Frame#	Time	RPSI			LPSI			L3			STRN			T10			C7			CLAV			RBAK			LBAK			LSHO			LUPA			LAEL			LAOL			LWTS			LWPS			LFRA			LIFD			LHPS			LHTS			RSHO			RUPA			RAEL			RAOL			RWTS			RWPS			RFRA			RIFD			RHTS			RHPS			RBHD			LFHD			RFHD			LBHD			LHIP			RHIP			RASI			LASI			LKNE			LTHI			LANK			LTIP			LTOE			LMT1			LMT5			LHEE			RKNE			RTHI			RANK			RTIP			RTOE			RMT1			RMT5			RHEE			
		X1	Y1	Z1	X2	Y2	Z2	X3	Y3	Z3	X4	Y4	Z4	X5	Y5	Z5	X6	Y6	Z6	X7	Y7	Z7	X8	Y8	Z8	X9	Y9	Z9	X10	Y10	Z10	X11	Y11	Z11	X12	Y12	Z12	X13	Y13	Z13	X14	Y14	Z14	X15	Y15	Z15	X16	Y16	Z16	X17	Y17	Z17	X18	Y18	Z18	X19	Y19	Z19	X20	Y20	Z20	X21	Y21	Z21	X22	Y22	Z22	X23	Y23	Z23	X24	Y24	Z24	X25	Y25	Z25	X26	Y26	Z26	X27	Y27	Z27	X28	Y28	Z28	X29	Y29	Z29	X30	Y30	Z30	X31	Y31	Z31	X32	Y32	Z32	X33	Y33	Z33	X34	Y34	Z34	X35	Y35	Z35	X36	Y36	Z36	X37	Y37	Z37	X38	Y38	Z38	X39	Y39	Z39	X40	Y40	Z40	X41	Y41	Z41	X42	Y42	Z42	X43	Y43	Z43	X44	Y44	Z44	X45	Y45	Z45	X46	Y46	Z46	X47	Y47	Z47	X48	Y48	Z48	X49	Y49	Z49	X50	Y50	Z50	X51	Y51	Z51	X52	Y52	Z52	X53	Y53	Z53	

127	1.26	-1275.066162109375	1037.466796875	103.6220779418945	-1288.267578125	1024.197998046875	-70.62117767333984	-1278.629760742188	1086.261962890625	8.638906478881836	-1028.281616210938	1288.852661132812	5.023138999938965	-1297.40625	1220.9248046875	0.5021533370018005	-1238.806396484375	1487.638671875	-3.861994028091431	-1059.153442382812	1403.386962890625	2.571998357772827	-1301.913208007812	1348.817138671875	71.23661804199219	-1258.755737304688	1450.169311523438	-106.00048828125	-1153.135131835938	1454.892700195312	-176.1900787353516	-1169.364379882812	1326.840576171875	-252.2646331787109	-1151.216674804688	1112.679443359375	-271.5890197753906	-1213.334838867188	1098.402954101562	-185.6417999267578	-1057.168212890625	875.8145751953125	-207.1581420898438	-1116.265991210938	862.368896484375	-265.0231628417969	-1130.710815429688	1003.704223632812	-278.1429138183594	-1037.239624023438	691.773193359375	-184.9516448974609	-1081.511352539062	782.4169921875	-259.5143737792969	-1034.001953125	794.47900390625	-209.6379547119141	-1180.523193359375	1451.176513671875	174.5282440185547	-1192.863159179688	1380.881103515625	238.5291442871094	-1221.916137695312	1114.770141601562	261.0354919433594	-1203.05078125	1094.404907226562	165.2805633544922	-1077.108520507812	865.8836059570312	230.7538299560547	-1151.177612304688	848.8883056640625	274.8118591308594	-1209.425170898438	1035.854736328125	266.9389953613281	-1064.7216796875	677.936279296875	216.3122406005859	-1050.891357421875	765.888427734375	232.9574890136719	-1111.428833007812	761.5490112304688	280.2729797363281	-1216.667846679688	1650.070556640625	72.025634765625	-1035.099609375	1713.544799804688	-39.59275436401367	-1053.43701171875	1702.756225585938	84.44244384765625	-1206.40234375	1668.03662109375	-64.45208740234375	-1185.505981445312	962.5479125976562	-163.9707946777344	-1205.029296875	967.0100708007812	180.4842681884766	-1081.70263671875	985.1439819335938	155.9827728271484	-1072.898193359375	973.3021850585938	-112.8509216308594	-1094.240356445312	500.1011962890625	-105.4162216186523	-1132.553833007812	638.6860961914062	-145.1688537597656	-1246.662841796875	54.0950927734375	-116.3040237426758	-1176.753784179688	262.3496398925781	-122.1316604614258	-1041.076049804688	50.94796371459961	-116.3387603759766	-1087.363403320312	48.52307510375977	-62.18386459350586	-1145.826416015625	47.06420516967773	-157.3218841552734	-1294.987548828125	49.39058685302734	-37.36965179443359	-1127.177612304688	523.0068969726562	166.3355255126953	-1117.857788085938	795.9788208007812	188.5943145751953	-1229.156372070312	45.82572174072266	170.6137084960938	-1151.190307617188	400.3418884277344	175.5564575195312	-1010.639831542969	43.99208068847656	146.7565307617188	-1070.08837890625	48.55949401855469	102.6601028442383	-1106.298950195312	49.1168212890625	194.6832122802734	-1272.789794921875	45.53636932373047	111.442741394043	
128	1.27	-1274.393676757812	1037.555297851562	102.7324447631836	-1287.479248046875	1024.233764648438	-71.49887847900391	-1277.81884765625	1086.252563476562	7.819828510284424	-1027.458129882812	1288.775756835938	4.130096435546875	-1296.67578125	1220.938110351562	-0.2184209674596786	-1237.957153320312	1487.618408203125	-4.520602703094482	-1058.305786132812	1403.302612304688	1.727832198143005	-1301.034545898438	1348.7890625	70.57765960693359	-1257.986206054688	1450.228515625	-106.6340637207031	-1152.453735351562	1454.93798828125	-176.9452362060547	-1168.908447265625	1326.906372070312	-253.0292663574219	-1151.010009765625	1112.716552734375	-272.4018249511719	-1213.036865234375	1098.505737304688	-186.373779296875	-1057.046264648438	875.8389892578125	-208.0602416992188	-1116.283081054688	862.3978881835938	-265.8571472167969	-1130.663330078125	1003.731079101562	-278.9973449707031	-1037.142822265625	691.7286376953125	-185.6729278564453	-1081.535766601562	782.3951416015625	-260.370361328125	-1033.39599609375	794.6021118164062	-210.7705688476562	-1179.531494140625	1451.057495117188	173.7999420166016	-1191.8173828125	1380.736206054688	237.78857421875	-1221.086791992188	1114.673950195312	260.286865234375	-1202.273803710938	1094.287719726562	164.4947509765625	-1076.639892578125	865.5676879882812	230.0939483642578	-1150.820434570312	848.7511596679688	274.1211853027344	-1208.701416015625	1035.76318359375	266.2060546875	-1064.556884765625	677.6476440429688	215.7857208251953	-1050.708374023438	765.4793090820312	232.2915954589844	-1111.173950195312	761.341064453125	279.6485900878906	-1215.891235351562	1649.916625976562	71.33123016357422	-1034.250366210938	1713.53955078125	-40.08792877197266	-1052.698852539062	1702.622314453125	83.93449401855469	-1205.552856445312	1668.01220703125	-65.12305450439453	-1184.85302734375	962.5347290039062	-164.9100189208984	-1204.369995117188	967.0711669921875	179.6576995849609	-1080.947509765625	985.1157836914062	155.2232971191406	-1072.153686523438	973.1683959960938	-113.5877532958984	-1093.939208984375	499.9653015136719	-105.7613296508789	-1132.238037109375	638.5843505859375	-145.7466735839844	-1246.82666015625	54.06729888916016	-116.306037902832	-1176.680541992188	262.2721557617188	-122.2912139892578	-1041.236328125	51.36137390136719	-116.3134841918945	-1087.536010742188	48.70598602294922	-62.19142913818359	-1146.00537109375	47.19519424438477	-157.3065032958984	-1295.105834960938	49.32016754150391	-37.41091537475586	-1127.002807617188	523.0211791992188	165.9286804199219	-1116.857421875	796.1355590820312	187.7044830322266	-1229.209350585938	45.8245964050293	170.631103515625	-1151.10009765625	400.3812255859375	175.2544708251953	-1010.705749511719	44.02990341186523	146.8231811523438	-1070.0966796875	48.58494567871094	102.7073745727539	-1106.27490234375	49.11471939086914	194.7572631835938	-1272.814819335938	45.52170562744141	111.4699783325195	
129	1.28	-1273.6689453125	1037.631469726562	101.8009719848633	-1286.635986328125	1024.267333984375	-72.42601776123047	-1276.953125	1086.240234375	6.958130836486816	-1026.604370117188	1288.695556640625	3.184742212295532	-1295.885009765625	1220.950561523438	-0.9697304964065552	-1237.06689453125	1487.595092773438	-5.234638690948486	-1057.418090820312	1403.221801757812	0.8300076127052307	-1300.123413085938	1348.761108398438	69.87136840820312	-1257.160766601562	1450.280517578125	-107.3089752197266	-1151.738891601562	1454.977661132812	-177.7518005371094	-1168.423095703125	1326.971557617188	-253.8482208251953	-1150.78759765625	1112.747802734375	-273.2728576660156	-1212.716430664062	1098.605224609375	-187.1603088378906	-1056.899291992188	875.85986328125	-209.0076141357422	-1116.27734375	862.4274291992188	-266.735595703125	-1130.568359375	1003.753234863281	-279.8935546875	-1037.013305664062	691.7037963867188	-186.3962554931641	-1081.518310546875	782.365478515625	-261.2635803222656	-1032.919067382812	794.658447265625	-211.8848419189453	-1178.501953125	1450.945678710938	173.0177307128906	-1190.723754882812	1380.600463867188	237.0015716552734	-1220.254150390625	1114.592529296875	259.4803161621094	-1201.446044921875	1094.178833007812	163.6716613769531	-1076.142822265625	865.2501831054688	229.4212341308594	-1150.417602539062	848.6301879882812	273.4295654296875	-1207.93701171875	1035.682739257812	265.4492492675781	-1064.389404296875	677.3739013671875	215.24560546875	-1050.526733398438	765.0883178710938	231.6198425292969	-1110.921630859375	761.1388549804688	279.0138549804688	-1215.070068359375	1649.760986328125	70.60926818847656	-1033.374267578125	1713.548095703125	-40.6190185546875	-1051.921264648438	1702.467895507812	83.38789367675781	-1204.649536132812	1667.99755859375	-65.82411193847656	-1184.140380859375	962.5244140625	-165.9101867675781	-1203.668334960938	967.11328125	178.7856903076172	-1080.144409179688	985.0753784179688	154.4239959716797	-1071.361572265625	973.0411987304688	-114.3731536865234	-1093.6806640625	499.8357238769531	-106.1175308227539	-1131.909057617188	638.4832153320312	-146.3412475585938	-1246.966796875	54.03929901123047	-116.3184661865234	-1176.602783203125	262.1890258789062	-122.4728088378906	-1041.3662109375	51.71453857421875	-116.2789306640625	-1087.693969726562	48.86749267578125	-62.19207763671875	-1146.157348632812	47.3004150390625	-157.2938079833984	-1295.227661132812	49.26030349731445	-37.46952056884766	-1126.70556640625	523.0132446289062	165.4648742675781	-1115.98828125	796.2196655273438	186.8658447265625	-1229.242431640625	45.82750701904297	170.6449127197266	-1150.921020507812	400.4033508300781	174.89794921875	-1010.762512207031	44.05686569213867	146.8799285888672	-1070.101684570312	48.60127639770508	102.7441329956055	-1106.245361328125	49.10954666137695	194.8222198486328	-1272.836547851562	45.51358795166016	111.4865036010742	
130	1.29	-1272.8857421875	1037.69091796875	100.8364715576172	-1285.751831054688	1024.291381835938	-73.40010070800781	-1276.045776367188	1086.226318359375	6.052484512329102	-1025.7158203125	1288.608032226562	2.191284656524658	-1295.035522460938	1220.961547851562	-1.756782174110413	-1236.128173828125	1487.569213867188	-6.001474380493164	-1056.490478515625	1403.142211914062	-0.1196553185582161	-1299.175048828125	1348.73388671875	69.11814117431641	-1256.283569335938	1450.323120117188	-108.0302352905273	-1150.983154296875	1455.011474609375	-178.6070556640625	-1167.901733398438	1327.035278320312	-254.7214202880859	-1150.545654296875	1112.773681640625	-274.2021179199219	-1212.368774414062	1098.699584960938	-188.0013885498047	-1056.722534179688	875.8707885742188	-209.9964447021484	-1116.237060546875	862.455322265625	-267.6552734375	-1130.414672851562	1003.769836425781	-280.8283386230469	-1036.847778320312	691.703125	-187.1186370849609	-1081.462158203125	782.3284912109375	-262.1941528320312	-1032.55126953125	794.6602783203125	-212.9840240478516	-1177.43505859375	1450.841552734375	172.1849212646484	-1189.593627929688	1380.474243164062	236.1662139892578	-1219.427734375	1114.5263671875	258.6138305664062	-1200.573120117188	1094.07568359375	162.8094940185547	-1075.613159179688	864.9427490234375	228.74072265625	-1149.967163085938	848.5261840820312	272.7362976074219	-1207.142944335938	1035.61376953125	264.6640014648438	-1064.20263671875	677.1131591796875	214.6849365234375	-1050.327392578125	764.7305297851562	230.9501647949219	-1110.652221679688	760.943603515625	278.36376953125	-1214.200073242188	1649.600463867188	69.85870361328125	-1032.465698242188	1713.569580078125	-41.18375396728516	-1051.103881835938	1702.298095703125	82.80317687988281	-1203.688842773438	1667.99169921875	-66.55970764160156	-1183.361450195312	962.5117797851562	-166.9667205810547	-1202.919311523438	967.1326293945312	177.8712615966797	-1079.309448242188	985.0234375	153.5776672363281	-1070.54150390625	972.9260864257812	-115.2193374633789	-1093.468383789062	499.7146606445312	-106.4853744506836	-1131.541137695312	638.3775634765625	-146.939697265625	-1247.07470703125	54.0123176574707	-116.3417892456055	-1176.519897460938	262.0989074707031	-122.6767349243164	-1041.46484375	51.98912811279297	-116.2349548339844	-1087.828857421875	48.99507141113281	-62.18422317504883	-1146.276123046875	47.37558746337891	-157.2833099365234	-1295.354125976562	49.21642303466797	-37.54571533203125	-1126.26611328125	522.978515625	164.9356231689453	-1115.201904296875	796.2568359375	186.0584411621094	-1229.24951171875	45.83013153076172	170.6573944091797	-1150.640747070312	400.4075012207031	174.4837951660156	-1010.808898925781	44.07228851318359	146.9283599853516	-1070.102416992188	48.60900497436523	102.7722015380859	-1106.211547851562	49.09893798828125	194.8802490234375	-1272.854614257812	45.51076126098633	111.4924545288086	
